<svg class="ill-current h-24 w-15"viewBox="0 0 155 172" fill="none" xmlns="http://www.w3.org/2000/svg">
<path d="M62.0001 55C12.4001 54.6 2.00014 69.8334 3.00014 77.5C4.16676 82.6667 17.6 93.1 62.0001 93.5C106.4 93.9 117.833 83 118 77.5C120 70.1667 111.6 55.4 62.0001 55Z" fill="#9F9598" stroke="#B0AAAC" stroke-width="5"/>
<path d="M57 64.5C26.9136 63.7478 8 71 7.5 77.5C38 99 105.177 90.9308 113 80.5C120.5 70.5 97 65.5001 57 64.5Z" fill="#171315" stroke="#171315" stroke-width="3"/>
<path d="M5.49983 119.5C4.99983 117 2 87.1667 2 77C2.5 83 39.3332 92.3333 56.9998 94C106.371 94.7538 118.339 83.1383 119 76.635V75.5C119.038 75.8564 119.04 76.2361 119 76.635V89C129.833 82.8333 151.8 77 153 103C154.2 129 116.833 144.167 97.9998 148.5L86.9998 158.5C63.7998 174.9 43.9998 172 28.4998 161.5C12.9998 151 5.99982 122 5.49983 119.5Z" fill="#B0AAAC"/>
<path d="M2 77C2 87.1667 4.99983 117 5.49983 119.5C5.99982 122 12.9998 151 28.4998 161.5C43.9998 172 63.7998 174.9 86.9998 158.5L97.9998 148.5C116.833 144.167 154.2 129 153 103C151.8 77 129.833 82.8333 119 89V75.5C119.666 81.6667 109.4 94.8 56.9998 94C39.3332 92.3333 2.5 83 2 77Z" stroke="#B0AAAC" stroke-width="3"/>
<path d="M57.317 67.2985C29.1712 65.0285 5.5 73 7.49998 78.5C11.5 96 101 94.5 108 84C110 81 114.812 78.5 113.5 76C109.682 68.7247 88.6383 69.8246 57.317 67.2985Z" fill="#1C1619" stroke="#171315" stroke-width="3"/>
<path d="M136 93C124 87.8 117.5 105 116 112.5C115 115.5 116.1 119.4 110.5 129C103.5 141 118 131 133 123C148 115 151 99.5 136 93Z" fill="#1F181B" stroke="#B0AAAC" stroke-width="3"/>
<path d="M35.6318 113.446C38.6765 116.751 38.063 119.858 34.0073 120.182C29.8152 120.403 23.5442 117.678 20.4086 114.339C17.6253 111.186 19.1476 108.635 23.3851 108.415C27.4749 108.102 32.7917 110.258 35.6318 113.446Z" fill="#47C280"/>
<path d="M61.2159 106.56C64.9535 109.586 65.4874 113.667 62.1474 114.965C58.7279 116.101 53.1044 114.188 49.8439 111.035C46.7538 108.067 46.9015 105.238 49.8439 104.438C52.6841 103.464 57.66 104.09 61.2159 106.56Z" fill="#47C280"/>
<path d="M96 109.785C95.0871 109.971 94.3621 111.13 93.8244 111.755C91.3804 114.597 89.0441 117.541 86.4274 120.224C81.0221 125.766 75.097 131.119 68.8533 135.661C64.2268 139.027 59.6771 142.91 54.6636 145.682C51.5253 147.417 48.4511 149.859 45.0909 151M35.6318 113.446C38.6765 116.751 38.063 119.858 34.0073 120.182C29.8152 120.403 23.5442 117.678 20.4086 114.339C17.6253 111.186 19.1476 108.635 23.3851 108.415C27.4749 108.102 32.7917 110.258 35.6318 113.446ZM61.2159 106.56C64.9535 109.586 65.4874 113.667 62.1474 114.965C58.7279 116.101 53.1044 114.188 49.8439 111.035C46.7538 108.067 46.9015 105.238 49.8439 104.438C52.6841 103.464 57.66 104.09 61.2159 106.56Z" stroke="#47C280" stroke-width="8" stroke-linecap="round"/>
<path d="M42.0001 11C45.8334 13.1667 51.2001 20.5 42.0001 32.5C32.8001 44.5 35.8334 45.8333 38.5001 45M42 11C45.8333 13.1667 51.2 20.5 42 32.5" stroke="#47C280" stroke-width="4" stroke-linecap="round"/>
<path d="M61.2017 2C65.0351 4.16667 70.4017 11.5 61.2017 23.5C52.0017 35.5 55.0351 36.8333 57.7017 36M61.2017 2C65.035 4.16667 70.4017 11.5 61.2017 23.5" stroke="#47C280" stroke-width="4" stroke-linecap="round"/>
<path d="M80.2017 8C84.0351 10.1667 89.4017 17.5 80.2017 29.5C71.0017 41.5 74.0351 42.8333 76.7017 42M80.2017 8C84.035 10.1667 89.4017 17.5 80.2017 29.5" stroke="#47C280" stroke-width="4" stroke-linecap="round"/>
</svg>